<svg width="219" height="206" viewBox="0 0 219 206" fill="#f57c76" xmlns="http://www.w3.org/2000/svg">
<path fill-rule="evenodd" clip-rule="evenodd" d="M75.1062 3.1161C72.6432 5.5791 72.0252 7.1091 71.7792 11.3471L71.4782 16.5531L42.9782 41.7971C18.0432 63.8841 14.0632 67.0451 11.1622 67.0661C4.33416 67.1161 0.0341557 71.2961 0.000155695 77.9171C-0.0218443 82.2391 2.28716 85.6451 7.23616 88.5901C8.57916 89.3891 23.2342 121.685 49.9332 182.678C51.4702 186.191 51.5342 187.105 50.3852 189.178C44.4252 199.935 57.8822 210.37 67.1932 202.212C69.9702 199.779 77.7692 197.243 117.609 185.819C161.284 173.295 165.033 172.382 168.734 173.37C176.094 175.335 182.251 170.652 182.251 163.09C182.251 161.08 181.532 158.338 180.653 156.997C179.13 154.673 179.734 151.996 193.5 100.074C201.445 70.1081 207.952 45.2881 207.961 44.9191C207.971 44.5511 209.316 43.9551 210.951 43.5961C218.634 41.9081 221.503 31.9471 216.06 25.8561C213.583 23.0841 212.461 22.5901 208.641 22.5901C205.366 22.5901 203.495 23.1951 201.775 24.8111L199.411 27.0321L179.445 23.5611C168.463 21.6531 144.736 17.5321 126.717 14.4051L93.9572 8.7191L91.9922 5.3891C88.3822 -0.728896 80.0702 -1.8479 75.1062 3.1161ZM116.478 16.4761C184.578 28.2301 196.574 30.4141 197.435 31.2141C198.036 31.7731 197.85 32.6051 196.935 33.4491C196.134 34.1881 182.743 39.9181 167.179 46.1811L138.879 57.5701L135.847 55.8301C134.18 54.8731 130.898 54.0901 128.554 54.0901C124.303 54.0901 124.25 54.0431 107.7 35.9141L91.1082 17.7391L92.5512 14.9491C93.3452 13.4141 94.5532 12.3531 95.2362 12.5911C95.9192 12.8291 105.478 14.5771 116.478 16.4761ZM83.0692 20.6371L88.6602 20.7261L102.993 36.6581C110.876 45.4211 118.14 53.5101 119.134 54.6351C120.877 56.6071 120.876 56.8501 119.11 61.5021L117.279 66.3241L100.479 73.2071C91.2382 76.9931 83.2542 80.0901 82.7362 80.0901C82.2172 80.0901 80.6492 79.1901 79.2512 78.0901C77.7132 76.8801 75.1942 76.0901 72.8762 76.0901C69.8012 76.0901 68.3252 76.8101 65.3972 79.7381L61.7482 83.3861L42.3922 80.5651C31.7452 79.0131 22.6842 77.4841 22.2562 77.1671C21.8282 76.8491 20.6372 74.9351 19.6102 72.9131L17.7422 69.2361L21.1102 66.2611C70.3552 22.7661 74.5842 19.1891 75.9782 19.8431C76.8032 20.2301 79.9942 20.5871 83.0692 20.6371ZM198.978 39.1561C198.978 40.9201 197.31 43.6451 181.779 67.2531L166.87 89.9161L161.473 89.7531L156.076 89.5901L147.573 80.1401L139.071 70.6901L139.665 66.1401C139.992 63.6371 140.38 61.4441 140.527 61.2651C141.089 60.5821 196.542 38.1391 197.728 38.1151C198.416 38.1011 198.978 38.5701 198.978 39.1561ZM203.978 43.9171C203.978 46.2111 176.327 151.075 175.505 151.896C174.059 153.342 172.996 149.145 170.132 130.684L167.044 110.778L170.011 107.399C173.394 103.547 174.005 98.0011 171.449 94.3521C169.99 92.2681 170.656 91.0631 186.199 67.6571C200.981 45.3991 203.978 41.3971 203.978 43.9171ZM122.263 72.6761C124.745 74.7651 126.121 75.1831 129.407 74.8471C131.646 74.6181 134.153 74.1601 134.978 73.8291C137.01 73.0141 154.182 92.3951 153.35 94.5641C152.504 96.7671 150.302 96.5881 116.212 91.5311C87.7942 87.3151 82.5682 86.1671 84.2312 84.5031C84.9982 83.7361 117.151 70.1841 118.334 70.1291C118.804 70.1081 120.572 71.2541 122.263 72.6761ZM43.9742 84.6461C60.4512 87.1171 62.9252 87.9121 62.9632 90.7511C62.9782 91.8901 67.9592 96.5651 69.8822 97.2441C70.8522 97.5871 61.8112 175.959 60.2102 181.09C59.6582 182.859 58.7172 183.59 56.9942 183.59C54.2992 183.59 57.0052 189.21 26.9402 121.151C16.0682 96.5421 12.9562 88.6021 14.0442 88.2521C14.8332 87.9981 16.8282 86.3011 18.4782 84.4811C20.7232 82.0031 22.1072 81.2781 23.9782 81.5971C25.3532 81.8311 34.3512 83.2031 43.9742 84.6461ZM111.773 94.6121C124.811 96.5491 138.853 98.6341 142.978 99.2461C151.371 100.491 151.474 100.546 152.345 104.248C152.921 106.7 149.732 110.001 111.037 146.998C87.9752 169.048 68.6962 187.09 68.1962 187.09C67.6972 187.09 66.5342 186.257 65.6122 185.238C64.0392 183.5 64.2452 180.905 68.9682 142.988C74.7192 96.8251 74.6752 97.0901 76.4952 97.0901C77.2412 97.0901 79.1182 95.7621 80.6652 94.1381C82.2122 92.5151 84.5112 91.1651 85.7732 91.1381C87.0352 91.1121 98.7352 92.6751 111.773 94.6121ZM163.427 113.088C163.661 113.914 165.014 122.015 166.433 131.09C167.852 140.165 169.235 148.588 169.507 149.809C169.886 151.515 169.309 152.384 167.006 153.575C162.883 155.707 160.612 160.403 161.381 165.207L161.991 169.022L153.734 171.509C149.193 172.877 128.851 178.737 108.53 184.531C72.4832 194.81 70.0742 195.274 69.9932 191.957C69.9852 191.609 89.3572 172.897 113.041 150.376L156.105 109.428L159.553 110.507C161.449 111.101 163.193 112.262 163.427 113.088Z" fill="#f57c76"/>
</svg>
