<svg width="192" height="193" viewBox="0 0 192 193" fill="none" xmlns="http://www.w3.org/2000/svg">
<path fill-rule="evenodd" clip-rule="evenodd" d="M10.407 2.327C7.983 3.606 4.65 6.57 3 8.913L0 13.172V96.5V179.828L3 184.087C4.65 186.43 7.983 189.394 10.407 190.673L14.815 193H96H177.185L181.593 190.673C184.017 189.394 187.35 186.43 189 184.087L192 179.828V96.5V13.172L189 8.913C187.35 6.57 184.017 3.606 181.593 2.327L177.185 0H96H14.815L10.407 2.327ZM160.068 90.762C164.478 93.031 171.89 100.56 171.05 101.919C170.766 102.379 167.651 104.563 164.128 106.772L157.724 110.787L156.534 108.563C153.434 102.772 143.128 101.271 139.26 106.048C136.846 109.03 137.019 114.107 139.632 116.911C140.804 118.17 146.816 121.573 152.99 124.474C165.162 130.194 171.502 135.123 174.669 141.331C176.331 144.589 176.631 146.777 176.346 153.564C176.041 160.849 175.64 162.344 172.966 166.165C171.115 168.81 167.801 171.67 164.466 173.5C159.28 176.347 158.407 176.5 147.404 176.5C136.126 176.5 135.62 176.404 128.942 173C123.97 170.466 121.05 168.141 118.358 164.576L114.641 159.653L121.729 155.498L128.816 151.344L132.408 155.325C136.721 160.105 140.869 162 147.018 162C154.9 162 159.5 158.409 159.5 152.254C159.5 147.905 156.258 145.239 143.926 139.444C126.016 131.029 120.565 124.652 120.522 112.066C120.484 101.04 126.337 92.767 136.5 89.477C142.872 87.415 154.831 88.067 160.068 90.762ZM104.319 123.824L104 158.648L100.985 164.54C98.678 169.049 96.817 171.146 93.063 173.467C88.409 176.344 87.613 176.5 77.578 176.5C68.643 176.5 66.379 176.165 63 174.342C58.859 172.107 54.926 168.345 52.162 163.975L50.565 161.45L57.647 157.19C64.291 153.193 64.812 153.04 66.082 154.715C66.827 155.697 67.451 156.844 67.468 157.265C67.527 158.686 73.981 161.992 76.703 161.996C80.63 162.002 84.118 160.133 85.39 157.343C86.132 155.714 86.5 143.974 86.5 121.953V89H95.569H104.639L104.319 123.824Z" fill="#F57C76"/>
</svg>
