<svg width="582" height="799" viewBox="0 0 582 799" fill="#f57c76" xmlns="http://www.w3.org/2000/svg">
<path fill-rule="evenodd" clip-rule="evenodd" d="M326.061 8.93402C320.872 23.39 315.773 28.995 303.457 33.779C292.499 38.035 290.856 38.891 291.267 40.127C291.462 40.715 295.86 42.741 301.04 44.63C309.309 47.645 311.189 48.803 316.464 54.13C320.109 57.811 322.994 61.769 323.8 64.196C327.046 73.966 329.519 79.675 330.381 79.388C331.587 78.986 332.33 77.496 334.963 70.196C339.955 56.357 345.544 50.237 357.376 45.655C361.82 43.933 366.469 42.123 367.707 41.632C371.223 40.237 370.416 39.104 364.207 36.721C361.044 35.507 356.657 33.775 354.457 32.873C349.814 30.969 340.206 22.34 338.67 18.696C338.091 17.321 336.231 12.628 334.537 8.26802C332.843 3.90802 330.991 0.190013 330.422 0.00601286C329.852 -0.176987 327.89 3.84002 326.061 8.93402ZM171.331 62.446C170.468 65.126 167.198 74.071 164.848 80.18C161.1 89.921 152.178 98.178 140.707 102.52C126.2 108.01 123.957 108.982 123.957 109.777C123.957 111.006 126.303 112.073 136.957 115.687C152.257 120.876 161.707 129.597 166.301 142.767C170.805 155.677 171.91 158.22 173.126 158.47C173.948 158.639 175.345 156.342 176.776 152.47C182.821 136.114 184.31 133.352 190.399 127.204C196.835 120.706 199.57 119.124 211.773 114.845C220.388 111.824 223.728 110.134 222.84 109.246C222.51 108.916 216.992 106.654 210.578 104.221C204.164 101.788 197.238 98.583 195.187 97.1C187.084 91.243 181.441 81.782 176.008 64.946C174.597 60.571 172.325 59.358 171.331 62.446ZM275.457 135.885C267.94 138.705 259.509 146.032 255.93 152.853C250.872 162.494 250.987 160.664 250.973 231.696C250.954 325.281 252.008 398.696 253.37 398.694C253.968 398.693 255.201 396.331 256.11 393.444C260.244 380.321 263.915 371.196 265.062 371.196C266.172 371.196 270.446 381.863 275.621 397.55C277.768 404.055 283.5 410.813 289.218 413.579C293.178 415.495 304.578 419.827 314.957 423.36C317.432 424.202 319.854 425.267 320.34 425.726C321.241 426.579 316.431 428.97 307.457 432.131C290.544 438.087 287.959 439.334 283.242 443.814C277.945 448.846 277.418 449.895 270.388 469.431C266.787 479.441 265.328 482.419 264.402 481.651C263.729 481.092 262.955 479.636 262.682 478.415C262.408 477.195 260.735 472.371 258.963 467.696C257.19 463.021 255.002 456.946 254.099 454.196C251.777 447.126 244.159 439.92 235.809 436.896C212.862 428.586 209.644 427.256 209.191 425.899C208.971 425.237 209.39 424.691 210.124 424.684C213.103 424.657 232.477 416.841 232.733 415.563C232.885 414.805 225.976 386.288 217.38 352.191C208.784 318.094 201.383 288.621 200.933 286.696C200.483 284.771 199.168 279.596 198.009 275.196C196.851 270.796 195.513 265.396 195.036 263.196C191.405 246.451 178.519 198.333 176.706 194.748C169.868 181.226 152.468 172.734 138.348 176.028C135.105 176.784 130.652 178.333 128.454 179.469C122.907 182.335 115.459 190.286 113.077 195.884C110.797 201.241 108.88 210.527 109.48 213.312C109.703 214.348 110.801 219.921 111.92 225.696C113.04 231.471 114.857 240.471 115.959 245.696C117.061 250.921 118.39 257.221 118.913 259.696C119.435 262.171 120.793 268.471 121.931 273.696C123.068 278.921 124.485 285.446 125.079 288.196C125.673 290.946 126.515 294.771 126.95 296.696C127.386 298.621 128.739 304.921 129.957 310.696C131.175 316.471 132.528 322.771 132.964 324.696C133.399 326.621 134.295 330.671 134.955 333.696C136.134 339.105 137.391 344.787 138.936 351.696C139.367 353.621 141.166 361.496 142.935 369.196C144.704 376.896 147.016 387.246 148.072 392.196C149.129 397.146 150.68 404.121 151.519 407.696C152.984 413.938 153.691 417.041 156.02 427.446C156.605 430.058 157.476 433.771 157.957 435.696C159.865 443.338 162.702 456.175 164.92 467.196C165.362 469.396 166.729 475.921 167.957 481.696C170.63 494.267 171.64 499.391 172.886 506.696C173.402 509.721 174.496 516.021 175.317 520.696C179.714 545.728 179.443 560.045 174.455 566.301C172.37 568.916 171.624 569.169 166.308 569.061C153.331 568.799 138.273 559.878 119.717 541.458C113.051 534.84 105.584 526.674 103.125 523.311C100.666 519.948 95.2347 513.821 91.0547 509.696C86.8757 505.571 82.4037 500.654 81.1167 498.769C75.3277 490.29 58.4627 481.429 38.9567 476.617C27.8687 473.882 14.4117 474.176 8.45671 477.283C3.34871 479.948 -0.0562952 484.905 0.00070484 489.594C0.106705 498.287 5.2987 506.403 26.2957 530.696C27.4847 532.071 30.0317 535.221 31.9567 537.696C33.8817 540.171 36.4107 543.321 37.5757 544.696C65.5347 577.675 75.1007 593.708 121.701 685.696C132.428 706.871 141.543 724.646 141.957 725.196C142.371 725.746 145.087 730.696 147.994 736.196C150.901 741.696 154.107 747.39 155.118 748.85C156.13 750.31 156.957 751.804 156.957 752.17C156.957 752.536 158.307 754.798 159.957 757.196C161.607 759.594 162.957 761.872 162.957 762.258C162.957 763.485 176.511 781.991 181.346 787.365C183.904 790.208 188.125 793.972 190.727 795.729L195.457 798.925L241.457 798.283C285.314 797.672 345.249 796.601 419.457 795.105C457.025 794.347 455.917 794.54 463.64 787.421C474.497 777.413 484.868 751.636 491.895 717.196C492.569 713.896 493.493 709.396 493.949 707.196C494.934 702.444 496.499 692.873 497.874 683.196C500.47 664.911 500.91 661.55 501.898 652.446C504.229 630.982 504.932 623.614 505.933 610.196C508.064 581.623 508.958 562.393 509.585 531.696C510.188 502.146 510.369 499.825 512.515 494.196C513.773 490.896 516.669 483.246 518.949 477.196C524.749 461.809 530.956 445.568 531.942 443.196C533.834 438.645 538.325 426.738 540.617 420.196C541.966 416.346 543.489 412.296 544.002 411.196C544.945 409.174 558.602 373.42 561.955 364.196C562.955 361.446 566.558 351.996 569.962 343.196C581.572 313.185 581.352 313.928 581.406 304.696C581.477 292.757 579.69 287.405 573.516 281.063C567.61 274.999 559.738 272.011 552.581 273.119C546.107 274.121 537.926 278.61 532.256 284.273C527.291 289.232 522.026 298.808 511.955 321.196C510.718 323.946 507.565 330.696 504.948 336.196C502.33 341.696 498.282 350.246 495.952 355.196C488.43 371.175 482.869 382.887 475.839 397.555C472.054 405.452 468.957 412.111 468.957 412.353C468.957 413.486 452.809 445.987 451.689 447.106C445.761 453.035 434.251 451.032 430.296 443.384C426.416 435.882 426.195 437.582 442.419 350.196C443.747 343.046 445.328 334.046 445.934 330.196C446.54 326.346 447.461 320.721 447.981 317.696C448.501 314.671 450.284 303.646 451.944 293.196C453.603 282.746 455.371 272.181 455.872 269.718C456.899 264.673 456.486 263.574 451.785 258.854C448.509 255.565 442.795 252.813 430.63 248.668C427.235 247.511 423.557 246.19 422.457 245.731C421.357 245.273 418.995 244.348 417.207 243.676C415.419 243.003 413.957 242.147 413.957 241.773C413.957 241.399 417.669 239.825 422.207 238.275C426.745 236.725 431.807 234.885 433.457 234.186C435.107 233.487 438.482 232.161 440.957 231.24C451.302 227.39 456.647 221.64 460.879 209.811L463.163 203.426L459.965 197.063C456.412 189.991 450.443 184.133 443.173 180.58C439.264 178.669 436.831 178.273 428.957 178.264C420.553 178.255 418.856 178.568 414.244 180.973C407.607 184.435 402.869 188.604 399.093 194.305C395.55 199.653 393.825 205.226 390.924 220.696C389.737 227.021 387.487 238.721 385.923 246.696C384.359 254.671 382.131 266.371 380.97 272.696C379.81 279.021 378.448 285.996 377.944 288.196C377.44 290.396 376.562 294.671 375.994 297.696C374.185 307.32 370.984 324.023 369.957 329.196C369.411 331.946 368.066 338.921 366.969 344.696C365.872 350.471 364.552 357.221 364.037 359.696C363.521 362.171 361.702 371.621 359.993 380.696C356.177 400.962 355.386 405.056 353.325 415.196C352.431 419.596 351.391 424.996 351.014 427.196C349.515 435.96 345.546 439.814 339.566 438.313C334.323 436.997 333.338 433.485 332.588 413.439C332.212 403.405 331.482 385.971 330.965 374.696C330.448 363.421 329.75 346.321 329.414 336.696C328.855 320.718 328.537 318.413 325.754 310.196C320.423 294.453 319.733 293.744 303.954 287.79C298.446 285.711 293.654 283.726 293.306 283.378C292.598 282.67 298.216 280.121 307.957 276.73C315.48 274.111 320.016 270.229 323.02 263.84C325.512 258.537 325.651 251.223 323.953 214.696C321.699 166.225 321.411 163.432 317.891 156.058C314.097 148.108 307.139 140.767 300.386 137.59C294.723 134.927 280.588 133.959 275.457 135.885ZM468.711 204.256C467.89 205.873 466.204 210.121 464.966 213.696C460.674 226.086 454.712 231.711 439.855 237.383C434.411 239.461 429.957 241.431 429.957 241.76C429.957 242.596 433.609 244.32 439.257 246.151C453.353 250.718 460.012 257.189 465.481 271.63C467.588 277.193 469.794 281.589 470.384 281.398C470.974 281.208 472.807 277.484 474.457 273.124C476.107 268.764 478.472 263.563 479.714 261.567C483.405 255.632 490.131 250.127 496.036 248.21C499.017 247.242 501.885 246.055 502.407 245.573C502.93 245.091 504.081 244.696 504.966 244.696C505.851 244.696 507.448 244.03 508.516 243.215C510.983 241.333 510.147 240.733 500.07 237.156C491.062 233.958 486.242 230.878 482.02 225.624C479.048 221.927 472.957 208.904 472.957 206.25C472.957 205.605 472.338 204.232 471.581 203.197C470.272 201.407 470.133 201.458 468.711 204.256ZM327.567 260.985C324.449 270.897 319.025 276.516 309.457 279.744C307.257 280.487 304.831 281.647 304.065 282.322C302.601 283.614 303.865 284.364 313.203 287.74C318.601 289.692 323.553 295.295 326.908 303.248C328.52 307.07 330.17 310.196 330.574 310.196C330.978 310.196 332.175 307.946 333.235 305.196C336.256 297.357 337.191 295.707 340.428 292.501C343.5 289.458 345.049 288.615 352.767 285.779C359.219 283.409 358.731 282.337 349.745 279.133C342.653 276.605 337.591 271.743 335.007 264.979C330.843 254.075 329.9 253.568 327.567 260.985ZM263.335 388.446C263.027 389.408 262.41 391.096 261.964 392.196C261.517 393.296 260.122 396.896 258.863 400.196C256.174 407.248 252.115 412.677 247.078 415.963C243.247 418.462 228.323 424.71 226.207 424.701C225.52 424.698 224.957 425.091 224.957 425.574C224.957 427.109 227.246 428.316 235.801 431.293C242.27 433.544 245.426 435.352 249.84 439.339C254.785 443.805 256.023 445.715 259.246 453.858C261.287 459.015 262.957 463.741 262.957 464.358C262.957 466.319 265.99 466.796 266.59 464.929C270.769 451.927 273.447 446.266 277.586 441.685C282.016 436.782 287.195 433.682 295.957 430.692C301.904 428.662 305.994 426.245 304.897 425.407C304.655 425.222 300.208 423.524 295.015 421.633C287.452 418.88 284.452 417.162 279.942 413.002C276.845 410.146 273.602 406.096 272.735 404.002C269.027 395.049 266.957 389.339 266.957 388.063C266.957 386.073 263.993 386.387 263.335 388.446ZM326.957 488.357C326.957 489.061 328.081 492.094 329.454 495.096C331.709 500.025 336.221 504.696 338.728 504.696C340.282 504.696 349.957 508.905 349.953 509.579C349.951 509.918 346.239 511.661 341.703 513.452C335.141 516.043 332.998 517.418 331.207 520.188C329.969 522.102 328.957 524.087 328.957 524.599C328.957 526.591 324.972 534.696 323.993 534.696C323.423 534.696 322.957 534.145 322.957 533.471C322.957 532.797 321.75 529.169 320.275 525.409C317.413 518.115 315.166 515.875 308.457 513.628C306.257 512.891 304.029 511.93 303.507 511.492C302.985 511.054 301.747 510.696 300.757 510.696C297.869 510.696 298.679 509.042 302.207 507.734C303.995 507.071 306.238 506.117 307.193 505.613C308.148 505.108 309.536 504.696 310.277 504.696C311.018 504.696 313.222 503.234 315.176 501.446C318.306 498.582 320.244 494.769 323.433 485.196C324.091 483.221 324.118 483.22 325.528 485.137C326.314 486.205 326.957 487.654 326.957 488.357ZM322.654 493.446C321.622 498.584 317.696 503.08 311.707 505.983C308.544 507.516 305.957 509.185 305.957 509.693C305.957 510.2 307.719 511.144 309.873 511.789C313.463 512.864 320.957 518.882 320.957 520.688C320.957 521.108 321.654 523.119 322.505 525.157C323.718 528.059 324.341 528.622 325.384 527.756C326.117 527.148 326.999 525.238 327.344 523.512C328.158 519.441 334.407 513.528 339.764 511.76C342.07 510.999 343.957 510.035 343.957 509.619C343.957 509.202 341.929 508.087 339.451 507.14C336.972 506.194 334.138 504.694 333.153 503.808C330.148 501.104 326.957 496 326.957 493.899C326.957 492.805 326.245 491.637 325.375 491.303C323.179 490.46 323.268 490.39 322.654 493.446ZM400.265 518.696C401.956 523.759 403.782 528.668 408.173 539.959C411.897 549.533 417.494 555.032 427.073 558.524C430.584 559.804 434.357 561.237 435.457 561.708C436.557 562.178 439.257 563.135 441.457 563.834C443.657 564.533 445.885 565.462 446.407 565.9C446.929 566.338 448.081 566.696 448.966 566.696C449.851 566.696 451.448 567.339 452.516 568.125C454.119 569.304 454.196 569.64 452.957 570.052C447.525 571.86 423.029 581.038 421.097 581.99C419.798 582.629 417.035 584.853 414.955 586.933C410.931 590.957 408.57 596.311 398.523 624.196C397.838 626.099 397.74 626.075 396.508 623.696C395.796 622.321 394.201 618.271 392.963 614.696C391.725 611.121 390.092 607.486 389.335 606.617C388.577 605.749 387.959 604.174 387.962 603.117C387.983 595.046 378.953 583.413 370.211 580.251C347.134 571.902 340.979 569.427 339.822 568.033C339.211 567.298 337.305 566.688 335.585 566.678C327.055 566.627 293.669 559.381 276.457 553.844C262.54 549.367 241.203 540.117 242.289 539.031C242.614 538.706 246.385 539.792 250.668 541.445C254.952 543.097 261.832 545.459 265.957 546.694C270.082 547.928 274.582 549.298 275.957 549.737C278.382 550.513 292.331 553.899 300.457 555.684C310.702 557.934 329.595 560.943 344.838 562.753C352.928 563.713 355.17 563.553 359.457 561.711C360.557 561.238 364.32 559.804 367.82 558.524C375.39 555.755 381.792 550.462 384.764 544.516C385.951 542.14 388.554 535.696 390.549 530.196C397.75 510.339 397.551 510.574 400.265 518.696ZM394.921 533.279C393.841 535.8 392.957 538.262 392.957 538.75C392.957 541.367 387.773 550.727 384.371 554.252C379.36 559.443 372.798 562.854 359.707 567.07C356.152 568.214 358.082 570.359 364.707 572.625C380.724 578.103 386.706 583.453 391.931 596.97C397.285 610.822 397.617 611.028 400.746 602.448C407.583 583.695 413.896 577.625 432.707 571.712C437.078 570.338 438.301 568.066 435.207 567.07C413.564 560.1 408.093 555.356 401.876 538.17C399.996 532.971 398.104 528.713 397.671 528.707C397.239 528.701 396.002 530.758 394.921 533.279ZM190.721 573.571C191.676 574.053 196.282 576.36 200.957 578.698C233.376 594.911 269.795 628.93 288.205 660.196C292.708 667.844 300.913 685.065 302.796 690.82C308.774 709.09 309.309 712.35 309.351 730.696C309.378 742.471 309.002 748.85 308.204 750.196C307.252 751.801 307.012 749.235 306.987 737.196C306.947 718.02 304.98 708.202 297.373 689.196C291.37 674.197 280.353 656.036 267.344 639.696C260.219 630.746 241.848 612.038 230.927 602.61C219.455 592.707 201.001 580.206 190.707 575.366C188.645 574.396 186.957 573.398 186.957 573.149C186.957 572.416 188.85 572.628 190.721 573.571ZM382.114 613.963C363.14 642.081 345.677 676.781 338.214 701.196C334.657 712.832 333.485 718.479 331.783 732.196C330.61 741.653 330.503 741.952 329.817 737.696C328.995 732.599 330.405 715.435 332.447 705.696C338.917 674.827 358.233 638.595 384.695 607.689C388.271 603.513 386.874 606.91 382.114 613.963Z" fill="#f57c76"/>
</svg>
