<svg width="583" height="520" viewBox="0 0 583 520" fill="none" xmlns="http://www.w3.org/2000/svg">
<path fill-rule="evenodd" clip-rule="evenodd" d="M399.434 0.460723C370.579 4.38072 334.999 24.1457 298.04 56.7907L290.617 63.3457L285 58.1477C260.711 35.6717 224.833 12.9497 201.948 5.54972C173.63 -3.60628 150.85 -0.418278 135.579 14.8377C127.935 22.4757 123.587 29.8237 119.363 42.2447C114.092 57.7447 112.629 70.9847 113.262 97.4497C113.794 119.683 114.836 129.18 119.061 150.314C120.201 156.014 120.758 161.021 120.298 161.44C119.838 161.86 116.312 163.225 112.462 164.475C90.6 171.574 60.113 185.887 44.316 196.469C20.787 212.229 6.69104 228.816 1.42304 246.937C-1.04696 255.432 -0.21296 269.768 3.23804 278.164C15.266 307.425 56.003 335.929 112.246 354.438C120.084 357.017 121.931 357.985 121.529 359.304C120.512 362.639 116.079 388.255 114.841 397.95C112.882 413.288 113.174 446.756 115.374 458.95C121.776 494.45 138.365 514.691 164.294 518.641C194.588 523.256 242.302 500.643 285.403 461.242L291.345 455.811L303.353 466.124C332.26 490.951 359.379 507.058 385.962 515.19C393.365 517.455 396.333 517.801 408.962 517.87C421.485 517.939 424.235 517.658 429.13 515.805C449.105 508.243 462.039 488.956 467.617 458.411C471.682 436.153 468.722 388.919 461.469 360.309C460.829 357.781 461.094 357.571 467.631 355.437C518.622 338.795 558.806 313.078 574.134 287.277C590.367 259.952 582.061 231.171 550.652 205.907C531.147 190.219 499.71 174.327 466.879 163.558L460.296 161.398L462.587 149.674C467.105 126.545 468.344 113.989 468.381 90.9497C468.417 67.9937 467.454 59.8037 462.9 44.3227C456.712 23.2857 443.104 7.63572 426.612 2.58472C419.065 0.273724 407.479 -0.631277 399.434 0.460723ZM184.452 28.9797C206.544 33.5427 236.923 51.6727 266.899 78.1837L271.336 82.1077L259.805 95.1887C247.087 109.616 235.995 123.212 228.14 134.002L223.006 141.053L203.496 143.806C192.765 145.32 176.228 148.143 166.746 150.08C157.265 152.017 149.08 153.68 148.558 153.776C147.502 153.97 144.946 142.652 142.274 125.95C139.81 110.548 139.733 72.2117 142.145 61.4157C148.652 32.2927 159.654 23.8577 184.452 28.9797ZM420.462 29.3157C424.728 31.2587 430.861 37.4197 433.383 42.2967C436.276 47.8917 439.867 62.3487 441.045 73.1457C442.996 91.0287 441.156 118.675 436.398 142.95C433.942 155.483 435.076 154.446 426.19 152.287C416.861 150.02 382.205 144.058 368.776 142.409L359.09 141.219L352.276 132.094C344.352 121.484 329.539 103.596 318.616 91.4497C314.412 86.7747 310.97 82.6407 310.967 82.2627C310.964 81.8857 314 78.8657 317.712 75.5527C344.489 51.6557 371.849 35.0347 394.453 28.9337C402.001 26.8957 415.588 27.0957 420.462 29.3157ZM312.612 126.079C317.755 132.2 321.962 137.44 321.962 137.723C321.962 138.006 307.787 138.238 290.462 138.238H258.962L262.212 134.119C266.872 128.214 276.423 117.011 283.962 108.609L290.462 101.365L296.862 108.158C300.383 111.893 307.47 119.958 312.612 126.079ZM340.474 167.049C344.294 167.588 344.841 168.147 351.938 178.782C364.318 197.333 377.476 219.883 387.719 240.104L397.422 259.258L394.442 265.552C383.428 288.814 364.914 321.509 351.181 341.95L344.462 351.95L334.962 352.744C321.382 353.88 267.958 354.105 251.661 353.095L237.861 352.24L230.081 340.595C215.094 318.162 192.344 278.211 186.852 264.678L184.712 259.405L189.384 249.741C199.659 228.487 216.512 199.076 230.233 178.45C234.075 172.675 237.313 167.835 237.428 167.695C238.941 165.859 328.067 165.301 340.474 167.049ZM201.294 172.7C195.332 182.183 181.13 206.515 176.485 215.207C172.261 223.11 170.272 225.969 169.704 224.953C168.436 222.689 162.133 205.075 158.009 192.276L154.248 180.602L161.355 178.989C165.264 178.102 174.762 176.247 182.462 174.867C190.162 173.487 197.137 172.206 197.962 172.02C201.212 171.288 202.072 171.463 201.294 172.7ZM394.987 173.984C412.305 177.016 426.964 180.363 426.956 181.283C426.945 182.641 420.16 203.323 415.996 214.692L411.696 226.435L404.335 212.948C400.287 205.53 393.323 193.496 388.861 186.206C384.399 178.915 380.545 172.613 380.296 172.2C379.716 171.237 378.347 171.071 394.987 173.984ZM133.517 205.149C138.581 220.46 146.905 242.348 152.242 254.385L154.652 259.82L150.805 268.69C145.36 281.244 134.729 310.181 131.334 321.686C128.77 330.379 128.248 331.357 126.462 330.82C116.76 327.899 97.061 320.121 86.213 314.928C48.03 296.649 26.982 276.935 26.982 259.45C26.982 243.946 45.609 225.012 77.093 208.514C91.421 201.007 123.544 188.23 126.811 188.74C127.605 188.864 130.359 195.6 133.517 205.149ZM466.115 192.041C518.714 210.295 555.193 237.9 555.193 259.45C555.193 281.351 518.388 309.024 464.285 327.8L454.108 331.332L448.929 315.641C444.159 301.194 433.803 273.939 429.171 263.646L427.234 259.342L431.212 250.146C436.852 237.106 446.187 211.834 450.031 199.2C451.883 193.11 453.836 188.45 454.535 188.45C455.213 188.45 460.424 190.066 466.115 192.041ZM276.962 206.896C263.031 210.817 252.828 218.401 244.825 230.784C231.519 251.37 234.557 279.766 251.962 297.5C258.192 303.848 264.411 307.772 273.426 311.044C301.87 321.369 334.652 304.227 343.407 274.45C345.325 267.926 345.57 253.84 343.887 246.859C341.519 237.035 337.04 229.336 329.057 221.37C317.469 209.806 306.746 205.411 290.462 205.551C285.512 205.594 279.437 206.199 276.962 206.896ZM190.387 328.45C194.88 335.875 199.41 343.242 200.453 344.821L202.35 347.691L197.906 347.022C187.235 345.415 156.389 339.19 155.652 338.495C154.825 337.714 160.359 319.646 166.759 302.234L170.331 292.518L176.274 303.734C179.543 309.903 185.894 321.025 190.387 328.45ZM421.049 318.35C424.301 327.92 426.962 336.336 426.962 337.053C426.962 337.77 425.275 338.827 423.212 339.404C418.808 340.634 391.576 346.002 384.736 346.988L380.01 347.67L389.236 332.283C394.31 323.82 401.387 311.42 404.962 304.727L411.462 292.557L413.299 296.754C414.309 299.062 417.797 308.78 421.049 318.35ZM168.64 369.425C179.542 371.612 196.161 374.426 205.571 375.68L222.681 377.959L234.748 393.454C241.386 401.977 252.43 415.289 259.291 423.036L271.765 437.123L265.614 442.569C227.292 476.499 188.47 495.841 167.244 491.578C159.882 490.099 155.074 486.858 151.132 480.715C139.696 462.893 137.098 427.851 144.047 385.141C146.034 372.93 147.698 365.45 148.429 365.45C148.643 365.45 157.738 367.239 168.64 369.425ZM436.839 376.7C441.201 400.141 441.449 402.871 441.441 427.45C441.435 449.473 441.209 452.839 439.206 460.745C434.931 477.619 427.77 488.064 418.801 490.507C412.466 492.232 398.996 491.071 389.462 487.977C368.654 481.226 340.651 463.535 316.019 441.578L310.576 436.726L319.535 426.838C331.079 414.096 340.555 402.674 350.97 388.95L359.317 377.95L378.89 375.178C389.654 373.653 405.662 370.895 414.462 369.05C423.262 367.205 431.426 365.64 432.604 365.572C434.558 365.461 434.928 366.432 436.839 376.7ZM321.66 382.45C318.086 387.186 305.527 402.102 299.107 409.237L291.649 417.524L288.703 414.737C285.574 411.777 270.159 394.31 263.298 385.95L259.194 380.95H290.993C319.095 380.95 322.66 381.124 321.66 382.45Z" fill="#F57C76"/>
</svg>
