<svg width="759" height="840" viewBox="0 0 759 840" fill="#f57c76" xmlns="http://www.w3.org/2000/svg">
<path fill-rule="evenodd" clip-rule="evenodd" d="M90.6262 0.802757C85.8522 2.00576 80.5592 4.81276 78.0732 7.45876C76.8102 8.80276 74.7892 9.90276 73.5802 9.90276C69.1212 9.90276 51.4302 15.0118 44.6352 18.2628C21.8612 29.1558 9.51617 47.7918 4.13517 79.4028C-1.58783 113.022 -1.33683 176.571 4.67917 217.403C9.38217 249.318 19.4562 287.941 31.7022 321L37.1092 335.598L35.4942 340.337C34.3452 343.708 34.0082 347.312 34.3272 352.819C34.7492 360.098 35.2622 361.548 42.8892 376.983C78.3282 448.701 123.207 499.943 171.994 524.393C178.522 527.664 181.532 529.741 181.923 531.245C182.232 532.432 184.507 537.446 186.979 542.387C192.822 554.067 203.247 564.815 213.683 569.916L220.74 573.366L222.421 586.385C229.534 641.482 257.387 703.586 295.917 750.262C353.853 820.449 426.247 851.046 497.047 835.271C512.652 831.794 523.139 828.018 539.626 819.943C563.75 808.126 582.848 794.206 604.145 772.917C638.151 738.923 666.349 694.084 683.225 647.166C686.938 636.843 687.953 634.928 689.716 634.916C694.398 634.886 708.117 630.672 715.626 626.957C753.52 608.21 768.993 561.653 750.071 523.32C742.377 507.734 730.648 496.19 714.626 488.436C702.379 482.509 694.135 480.629 680.626 480.68C650.336 480.795 624.25 497.149 611.156 524.232C605.6 535.723 603.763 544.09 603.763 557.903C603.763 572.175 605.625 580.262 611.781 592.723C617.609 604.522 628.699 616.659 639.977 623.582C644.184 626.165 647.769 628.374 647.944 628.492C648.119 628.61 646.255 633.813 643.802 640.055C625.413 686.839 596.653 728.552 562.81 757.525C529.612 785.946 495.793 799.903 460.126 799.903C438.817 799.903 420.566 795.527 399.626 785.396C378.853 775.347 361.885 762.59 341.6 741.772C303.216 702.379 273.994 647.502 263.661 595.403C262.352 588.803 260.982 581.066 260.617 578.211L259.954 573.019L265.79 570.031C277.919 563.823 286.861 554.282 293.784 540.163L298.315 530.923L308.608 525.958C336.462 512.523 365.876 487.759 390.766 456.789C406.631 437.049 428.302 402.259 440.528 376.903C445.422 366.753 445.589 366.119 445.533 357.903C445.489 351.394 444.962 348.261 443.284 344.53L441.092 339.658L446.149 326.03C448.93 318.535 451.617 311.414 452.12 310.206C454.032 305.614 462.147 277.827 465.496 264.403C476.816 219.035 480.861 182.532 479.743 135.823C478.813 96.9368 476.77 78.3668 471.502 60.9028C463.401 34.0448 446.797 19.0488 417.383 12.0228C411.678 10.6608 408.102 9.10776 404.715 6.52276C396.364 0.147758 393.311 -0.263248 356.904 0.089752C325.425 0.394752 324.509 0.460755 319.887 2.73676C314.09 5.59176 307.883 12.4328 306.302 17.7098C303.271 27.8258 305.48 37.2388 312.605 44.5668C320.584 52.7728 322.499 53.0898 361.846 52.7148C390.803 52.4388 394.999 52.1988 397.826 50.6528C402.023 48.3578 403.536 48.4328 412.932 51.4008C434.35 58.1678 438.976 72.0968 440.659 134.903C441.862 179.783 437.611 216.483 426.074 260.832C421.903 276.863 413.685 302.221 407.903 316.903C404.652 325.157 404.399 325.482 399.143 328.149C391.412 332.07 387.762 336.056 382.476 346.349C353.786 402.217 326.358 436.994 293.996 458.539C263.735 478.684 235.277 481.538 205.416 467.422C166.924 449.225 128.878 404.504 99.1252 342.481C92.3082 328.271 87.7002 323.313 78.0322 319.788L72.2112 317.666L69.3012 310.034C60.2862 286.389 50.4192 251.102 45.7772 225.903C40.3382 196.376 39.6252 187.153 39.6342 146.403C39.6422 106.928 40.4392 95.0938 44.1632 79.1468C48.4612 60.7458 56.0572 53.3238 74.5562 49.4528C80.6472 48.1788 81.2672 48.2248 85.3222 50.2518C89.4222 52.3008 91.1812 52.4168 122.445 52.7038C161.241 53.0598 163.405 52.7198 171.065 45.0588C178.544 37.5798 180.74 28.6748 177.655 18.3348C175.738 11.9108 171.618 7.04476 164.982 3.36876L159.626 0.402756L126.626 0.224754C108.476 0.126754 92.2762 0.386757 90.6262 0.802757ZM689.3 509.352C704.65 512.605 717.155 522.439 723.837 536.51C727.206 543.604 727.614 545.353 727.971 554.245C728.457 566.352 726.518 574.457 721.166 582.682C706.719 604.884 680.171 612.071 656.632 600.151C649.905 596.745 639.241 585.76 635.893 578.788C628.368 563.119 629.644 544.34 639.207 530.02C646.17 519.593 657.196 512.066 669.389 509.417C677.523 507.65 681.211 507.638 689.3 509.352ZM670.824 528.287C654.099 534.517 646.009 553.336 653.096 569.525C659.601 584.384 677.981 591.509 692.896 584.955C700.237 581.73 707.604 573.506 709.742 566.152C713.951 551.674 707.751 536.908 694.626 530.15C688.478 526.984 676.779 526.069 670.824 528.287Z" fill="#f57c76"/>
</svg>
