<svg width="1102" height="662" viewBox="0 0 1102 662" fill="none" xmlns="http://www.w3.org/2000/svg">
<path fill-rule="evenodd" clip-rule="evenodd" d="M524.467 0.979562C464.689 5.02756 413.777 22.7396 371.663 54.1366C359.306 63.3496 335.058 87.6906 325.541 100.438C302.499 131.297 286.398 166.215 277.135 205.419C273.562 220.542 274.045 221.669 280.272 212.731C302.593 180.691 340.617 151.944 376.431 140.034C392.826 134.581 406.089 132.502 424.663 132.472C436.969 132.452 443.45 132.92 450.163 134.311C483.912 141.308 517.898 160.882 555.747 195.121C561.568 200.387 578.893 217.093 594.247 232.246C624.263 261.869 630.194 267.032 647.163 278.31C689.124 306.198 735.938 323.61 787.663 330.567C804.376 332.814 846.367 333.081 863.163 331.046C919.222 324.255 960.793 309.233 995.21 283.33C1041.76 248.293 1081.11 188.075 1098.76 124.876C1100.44 118.852 1101.67 113.189 1101.49 112.292C1101.27 111.222 1098.93 113.541 1094.69 119.013C1085.91 130.355 1068.23 148.441 1057.22 157.344C1031.97 177.774 1005.67 190.204 977.534 195.014C961.574 197.742 935.873 197.253 920.163 193.922C896.257 188.853 867.298 176.407 851.163 164.266C845.518 160.018 827.063 142.341 801.663 116.851C759.006 74.0446 749.35 65.5276 725.163 49.3796C668.756 11.7196 602.348 -4.29544 524.467 0.979562ZM247.163 330.522C199.187 335.356 167.179 343.943 133.663 360.972C66.9746 394.855 20.2846 457.843 2.18458 538.345C0.831581 544.366 -0.144419 549.425 0.0175808 549.587C0.179581 549.748 4.05758 544.873 8.63658 538.753C34.6146 504.028 72.3466 477.461 110.663 466.917C130.699 461.403 156.659 460.136 175.269 463.763C207.225 469.992 238.289 487.068 274.627 518.381C280.383 523.34 299.741 541.798 317.646 559.398C335.551 576.998 353.567 593.924 357.682 597.011C400.445 629.095 452.628 650.857 506.163 658.93C524.754 661.734 563.237 662.751 582.536 660.949C609.609 658.421 641.751 651.481 665.274 643.083C727.511 620.866 781.654 564.345 812.369 489.528C819.912 471.156 828.434 443.71 827.482 440.856C827.302 440.316 824.457 443.356 821.159 447.611C812.777 458.426 791.795 479.819 781.663 487.881C733.616 526.113 680.807 536.014 624.663 517.315C608.192 511.829 587.496 501.792 578.439 494.897C567.867 486.848 553.733 473.301 529.404 447.898C492.028 408.872 470.672 390.569 441.542 372.597C407.986 351.894 372.37 339.301 328.888 332.766C317.683 331.081 309.287 330.649 283.163 330.411C265.563 330.25 249.363 330.3 247.163 330.522Z" fill="#F57C76"/>
</svg>
